<svg width="42" height="42" viewBox="0 0 42 42" fill="none" xmlns="http://www.w3.org/2000/svg">
<path d="M38.75 22V36.5833C38.75 37.6884 38.311 38.7482 37.5296 39.5296C36.7482 40.311 35.6884 40.75 34.5833 40.75H5.41667C4.3116 40.75 3.25179 40.311 2.47039 39.5296C1.68899 38.7482 1.25 37.6884 1.25 36.5833V7.41663C1.25 6.31156 1.68899 5.25175 2.47039 4.47035C3.25179 3.68895 4.3116 3.24996 5.41667 3.24996H20M28.3333 7.41663H40.8333M34.5833 1.16663V13.6666" stroke="black" stroke-opacity="0.72" stroke-width="2" stroke-linecap="round" stroke-linejoin="round"/>
<path d="M13.75 19.9166C16.0512 19.9166 17.9166 18.0511 17.9166 15.7499C17.9166 13.4487 16.0512 11.5833 13.75 11.5833C11.4488 11.5833 9.58331 13.4487 9.58331 15.7499C9.58331 18.0511 11.4488 19.9166 13.75 19.9166Z" stroke="black" stroke-opacity="0.72" stroke-width="2" stroke-linecap="round" stroke-linejoin="round"/>
<path d="M38.75 28.2499L32.3208 21.8208C31.5395 21.0396 30.4798 20.6008 29.375 20.6008C28.2701 20.6008 27.2105 21.0396 26.4292 21.8208L7.5 40.7499" stroke="black" stroke-opacity="0.72" stroke-width="2" stroke-linecap="round" stroke-linejoin="round"/>
</svg>
