<svg width="197" height="89" viewBox="0 0 197 89" fill="none" xmlns="http://www.w3.org/2000/svg">
<path d="M103.862 10.85V8.98004H64.7617C56.3018 8.98004 49.4117 13.83 49.4117 19.79V19.87L39.5317 17.2C40.3017 13.38 42.7918 9.86003 46.7318 7.09003C52.0589 3.55174 58.3377 1.72044 64.7318 1.84003H103.832V0L117.782 5.54004L103.862 10.85Z" fill="white"/>
<path d="M195.962 19.79C195.962 24.57 193.322 29.08 188.512 32.46C183.185 35.9995 176.906 37.8309 170.512 37.71H159.662V39.3L145.712 33.76L159.662 28.48V30.6H170.532C179.002 30.6 185.882 25.75 185.882 19.79C185.882 13.83 179.002 8.98002 170.532 8.98002H141.242L122.102 1.85996H170.532C176.925 1.74355 183.203 3.57458 188.532 7.10996C193.342 10.5 195.982 15 195.982 19.79" fill="white"/>
<path d="M126.722 30.6L141.422 37.71H64.7618C58.3671 37.8347 52.0868 36.003 46.7618 32.46C46.2818 32.13 45.8318 31.78 45.4018 31.46L42.3418 32.54L43.1618 29.33L43.5018 28.02L45.2018 21.45L58.0818 26.99L54.9218 28.11C57.9223 29.8027 61.317 30.6721 64.7618 30.63L126.722 30.6Z" fill="white"/>
<path d="M26.7818 19.2H35.0918V33.88C32.8876 35.4372 30.4413 36.6198 27.8518 37.38C25.2285 38.2346 22.4907 38.6864 19.7318 38.7201C16.2123 38.7716 12.7394 37.9103 9.65182 36.2201C6.71394 34.6205 4.26918 32.2483 2.58183 29.36C0.846108 26.3926 -0.0460045 23.0075 0.00182712 19.57C-0.0440918 16.1505 0.87807 12.7878 2.66183 9.87003C4.42924 6.9712 6.95753 4.61237 9.97183 3.05002C13.1778 1.38073 16.7476 0.53213 20.3618 0.580047C23.1654 0.592987 25.9448 1.10078 28.5718 2.08005C31.1179 2.96115 33.4731 4.31862 35.5118 6.08005L30.0418 12.81C28.6958 11.5439 27.1346 10.528 25.4318 9.81003C23.818 9.09824 22.0756 8.72393 20.3118 8.71005C18.4703 8.6915 16.6587 9.17628 15.0726 10.1121C13.4865 11.0479 12.1861 12.3992 11.3118 14.0201C10.3848 15.7104 9.91273 17.6125 9.94183 19.5401C9.91034 21.4966 10.3821 23.4283 11.3118 25.1501C12.1892 26.7782 13.4967 28.1341 15.0918 29.07C16.7221 30.0164 18.5769 30.5068 20.4618 30.49C22.694 30.388 24.8732 29.7757 26.8318 28.7L26.7818 19.2Z" fill="white"/>
<path d="M35.2617 51.27L35.2116 58.95H17.3316V67.16H33.8416V74.83H17.3316V88.15H7.70166V51.27H35.2617Z" fill="white"/>
<path d="M58.7617 61.2C61.0366 62.3445 62.9352 64.1181 64.2317 66.31C65.5007 68.6511 66.1654 71.272 66.1654 73.935C66.1654 76.598 65.5007 79.2189 64.2317 81.56C62.9378 83.754 61.0386 85.5283 58.7617 86.67C56.2082 87.8619 53.4246 88.4796 50.6067 88.4796C47.7887 88.4796 45.0051 87.8619 42.4517 86.67C40.1765 85.5332 38.2824 83.7573 37.0016 81.56C35.7413 79.2161 35.0815 76.5963 35.0815 73.935C35.0815 71.2737 35.7413 68.6539 37.0016 66.31C38.2852 64.1149 40.1785 62.3397 42.4517 61.2C45.0051 60.0081 47.7887 59.3904 50.6067 59.3904C53.4246 59.3904 56.2082 60.0081 58.7617 61.2ZM46.1816 68.91C45.0148 70.3463 44.4168 72.1615 44.5016 74.01C44.4104 75.8778 45.0082 77.714 46.1816 79.17C46.7441 79.7903 47.4301 80.2861 48.1957 80.6254C48.9612 80.9646 49.7893 81.1399 50.6266 81.1399C51.464 81.1399 52.2921 80.9646 53.0576 80.6254C53.8232 80.2861 54.5092 79.7903 55.0717 79.17C56.2528 77.7177 56.8548 75.8797 56.7617 74.01C56.8467 72.1564 56.2369 70.3378 55.0516 68.91C54.5069 68.2648 53.8243 67.7501 53.0541 67.4039C52.2839 67.0578 51.4458 66.889 50.6017 66.91C49.7617 66.8877 48.9276 67.0561 48.162 67.4025C47.3965 67.7489 46.7194 68.2643 46.1816 68.91Z" fill="white"/>
<path d="M91.2018 61.2C93.4788 62.3417 95.378 64.116 96.6718 66.31C97.9515 68.6477 98.6222 71.2699 98.6222 73.935C98.6222 76.6001 97.9515 79.2223 96.6718 81.56C95.3807 83.7562 93.4807 85.5311 91.2018 86.67C88.6484 87.8619 85.8648 88.4796 83.0468 88.4796C80.2289 88.4796 77.4452 87.8619 74.8918 86.67C72.618 85.535 70.7267 83.7584 69.4518 81.56C68.1914 79.2161 67.5317 76.5963 67.5317 73.935C67.5317 71.2737 68.1914 68.6539 69.4518 66.31C70.7313 64.1152 72.6213 62.3398 74.8918 61.2C77.4452 60.0081 80.2289 59.3904 83.0468 59.3904C85.8648 59.3904 88.6484 60.0081 91.2018 61.2ZM78.6318 68.91C77.465 70.3463 76.867 72.1615 76.9518 74.01C76.8531 75.8879 77.4514 77.7362 78.6318 79.2C79.174 79.8372 79.8531 80.3435 80.6185 80.6812C81.3839 81.0188 82.2157 81.1791 83.0518 81.15C83.8973 81.1839 84.7394 81.026 85.5153 80.6884C86.2911 80.3507 86.9805 79.8419 87.5318 79.2C88.7052 77.744 89.3031 75.9078 89.2118 74.04C89.2968 72.1864 88.6871 70.3677 87.5018 68.94C86.9587 68.2956 86.2777 67.7813 85.5092 67.4351C84.7408 67.089 83.9044 66.9198 83.0618 66.94C82.2217 66.917 81.3874 67.085 80.6217 67.4315C79.8561 67.7779 79.1791 68.2937 78.6418 68.94" fill="white"/>
<path d="M131.012 49.11V88.11H121.652V84.42C120.718 85.702 119.481 86.7327 118.052 87.42C116.541 88.1132 114.893 88.455 113.232 88.42C110.792 88.4703 108.386 87.8327 106.292 86.58C104.273 85.3364 102.656 83.5382 101.632 81.4C100.488 78.9934 99.92 76.3539 99.9717 73.69C99.9168 71.0729 100.479 68.4797 101.612 66.12C102.623 64.049 104.21 62.3132 106.182 61.12C108.253 59.9029 110.62 59.2833 113.022 59.33C114.72 59.3027 116.402 59.6618 117.942 60.38C119.394 61.0799 120.663 62.1068 121.652 63.38V49.11H131.012ZM120.012 79.18C121.103 77.6865 121.691 75.8848 121.691 74.035C121.691 72.1853 121.103 70.3835 120.012 68.89C119.449 68.2729 118.765 67.78 118.001 67.4427C117.237 67.1054 116.412 66.9312 115.577 66.9312C114.742 66.9312 113.916 67.1054 113.153 67.4427C112.389 67.78 111.704 68.2729 111.142 68.89C110.032 70.37 109.432 72.1701 109.432 74.02C109.432 75.87 110.032 77.6701 111.142 79.15C111.685 79.7964 112.368 80.3118 113.138 80.6581C113.909 81.0043 114.747 81.1725 115.592 81.15C116.432 81.1723 117.266 81.0039 118.031 80.6575C118.797 80.3111 119.474 79.7957 120.012 79.15" fill="white"/>
<path d="M157.67 61.0096C159.945 62.1542 161.844 63.9277 163.14 66.1196C164.42 68.4574 165.091 71.0796 165.091 73.7446C165.091 76.4097 164.42 79.0319 163.14 81.3696C161.846 83.5637 159.947 85.3379 157.67 86.4796C155.117 87.6715 152.333 88.2892 149.515 88.2892C146.697 88.2892 143.914 87.6715 141.36 86.4796C139.086 85.3446 137.195 83.5681 135.92 81.3696C134.66 79.0257 134 76.4059 134 73.7446C134 71.0833 134.66 68.4635 135.92 66.1196C137.2 63.9248 139.09 62.1494 141.36 61.0096C143.914 59.8177 146.697 59.2 149.515 59.2C152.333 59.2 155.117 59.8177 157.67 61.0096ZM145.1 68.7197C143.925 70.1522 143.323 71.9691 143.41 73.8196C143.317 75.6893 143.919 77.5273 145.1 78.9796C145.642 79.6168 146.321 80.1231 147.087 80.4608C147.852 80.7985 148.684 80.9587 149.52 80.9296C150.364 80.9605 151.203 80.8013 151.977 80.4637C152.751 80.1262 153.439 79.619 153.99 78.9796C155.164 77.5236 155.761 75.6874 155.67 73.8196C155.755 71.966 155.145 70.1474 153.96 68.7197C153.417 68.0752 152.736 67.5609 151.968 67.2148C151.199 66.8686 150.363 66.6994 149.52 66.7197C148.68 66.6966 147.846 66.8647 147.08 67.2111C146.314 67.5576 145.637 68.0734 145.1 68.7197Z" fill="white"/>
<path d="M188.892 61.2C191.165 62.3473 193.063 64.1202 194.362 66.31C195.631 68.6511 196.296 71.272 196.296 73.935C196.296 76.598 195.631 79.2189 194.362 81.56C193.065 83.7519 191.167 85.5255 188.892 86.67C186.338 87.8619 183.555 88.4796 180.737 88.4796C177.919 88.4796 175.135 87.8619 172.582 86.67C170.307 85.5332 168.413 83.7573 167.132 81.56C165.871 79.2161 165.212 76.5963 165.212 73.935C165.212 71.2737 165.871 68.6539 167.132 66.31C168.415 64.1149 170.309 62.3397 172.582 61.2C175.135 60.0081 177.919 59.3904 180.737 59.3904C183.555 59.3904 186.338 60.0081 188.892 61.2ZM176.312 68.91C175.145 70.3463 174.547 72.1615 174.632 74.01C174.541 75.8778 175.138 77.714 176.312 79.17C176.874 79.7903 177.56 80.2861 178.326 80.6254C179.091 80.9646 179.919 81.1399 180.757 81.1399C181.594 81.1399 182.422 80.9646 183.188 80.6254C183.953 80.2861 184.639 79.7903 185.202 79.17C186.383 77.7177 186.985 75.8797 186.892 74.01C186.977 72.1564 186.367 70.3378 185.182 68.91C184.637 68.2654 183.954 67.7511 183.184 67.405C182.414 67.0589 181.576 66.8897 180.732 66.91C179.892 66.8877 179.058 67.0561 178.292 67.4025C177.527 67.7489 176.849 68.2643 176.312 68.91Z" fill="white"/>
<path d="M130.922 20.3L130.962 20.31V20.27L130.922 20.3Z" fill="black"/>
<path d="M130.922 20.3L130.962 20.31V20.27L130.922 20.3Z" fill="black"/>
</svg>
