<svg width="24" height="20" viewBox="0 0 24 20" fill="none" xmlns="http://www.w3.org/2000/svg">
<path d="M1.9999 18.75L0.837404 18.2875C0.754341 18.4965 0.729202 18.724 0.764638 18.9461C0.800073 19.1682 0.89477 19.3766 1.03875 19.5494C1.18272 19.7222 1.37065 19.8529 1.58271 19.9278C1.79476 20.0027 2.0231 20.019 2.24365 19.975L1.9999 18.75ZM7.8824 17.58L8.4749 16.4787L8.07865 16.2662L7.63865 16.3537L7.8824 17.58ZM4.0299 13.6462L5.1924 14.1087L5.39615 13.5912L5.15115 13.0925L4.0299 13.6462ZM20.7499 10C20.7499 14.0575 17.1837 17.5 12.5874 17.5V20C18.3886 20 23.2499 15.6075 23.2499 10H20.7499ZM4.42615 10C4.42615 5.9425 7.99365 2.5 12.5887 2.5V0C6.7874 0 1.9249 4.3925 1.9249 10H4.42615ZM12.5887 2.5C17.1836 2.5 20.7499 5.9425 20.7499 10H23.2499C23.2499 4.3925 18.3899 0 12.5887 0V2.5ZM12.5874 17.5C11.0812 17.5 9.67865 17.125 8.4749 16.4787L7.2899 18.68C8.91971 19.5517 10.7391 20.0053 12.5874 20V17.5ZM2.24365 19.975L8.12615 18.805L7.63865 16.3537L1.75615 17.5237L2.24365 19.9762V19.975ZM5.15115 13.0925C4.67375 12.1315 4.42643 11.0731 4.42615 10H1.9249C1.9249 11.5 2.2774 12.9225 2.9074 14.2L5.15115 13.0925ZM2.86865 13.1837L0.837404 18.2887L3.1599 19.2112L5.1899 14.1075L2.8674 13.1837H2.86865Z" fill="black" fill-opacity="0.6"/>
<path d="M8.25 11.25C8.94036 11.25 9.5 10.6904 9.5 10C9.5 9.30964 8.94036 8.75 8.25 8.75C7.55964 8.75 7 9.30964 7 10C7 10.6904 7.55964 11.25 8.25 11.25Z" fill="black" fill-opacity="0.6"/>
<path d="M12.625 11.25C13.3154 11.25 13.875 10.6904 13.875 10C13.875 9.30964 13.3154 8.75 12.625 8.75C11.9346 8.75 11.375 9.30964 11.375 10C11.375 10.6904 11.9346 11.25 12.625 11.25Z" fill="black" fill-opacity="0.6"/>
<path d="M17 11.25C17.6904 11.25 18.25 10.6904 18.25 10C18.25 9.30964 17.6904 8.75 17 8.75C16.3096 8.75 15.75 9.30964 15.75 10C15.75 10.6904 16.3096 11.25 17 11.25Z" fill="black" fill-opacity="0.6"/>
</svg>
