<svg width="24" height="24" viewBox="0 0 24 24" fill="none" xmlns="http://www.w3.org/2000/svg">
<g clip-path="url(#clip0_0_607)">
<path d="M10 5.33331H16V6.66665H10V5.33331Z" fill="black" fill-opacity="0.5"/>
<path d="M10 8H16V9.33333H10V8Z" fill="black" fill-opacity="0.5"/>
<path d="M10 10.6667H16V12H10V10.6667Z" fill="black" fill-opacity="0.5"/>
<path d="M10 13.3333H16V14.6666H10V13.3333Z" fill="black" fill-opacity="0.5"/>
<path d="M10 16H16V17.3333H10V16Z" fill="black" fill-opacity="0.5"/>
<path d="M7.3335 5.33331H8.66683V6.66665H7.3335V5.33331Z" fill="black" fill-opacity="0.5"/>
<path d="M7.3335 8H8.66683V9.33333H7.3335V8Z" fill="black" fill-opacity="0.5"/>
<path d="M7.3335 10.6667H8.66683V12H7.3335V10.6667Z" fill="black" fill-opacity="0.5"/>
<path d="M7.3335 13.3333H8.66683V14.6666H7.3335V13.3333Z" fill="black" fill-opacity="0.5"/>
<path d="M7.3335 16H8.66683V17.3333H7.3335V16Z" fill="black" fill-opacity="0.5"/>
<path d="M18.6667 1.33331H5.33333C4.97971 1.33331 4.64057 1.47379 4.39052 1.72384C4.14048 1.97389 4 2.31302 4 2.66665V21.3333C4 21.6869 4.14048 22.0261 4.39052 22.2761C4.64057 22.5262 4.97971 22.6666 5.33333 22.6666H18.6667C19.0203 22.6666 19.3594 22.5262 19.6095 22.2761C19.8595 22.0261 20 21.6869 20 21.3333V2.66665C20 2.31302 19.8595 1.97389 19.6095 1.72384C19.3594 1.47379 19.0203 1.33331 18.6667 1.33331ZM18.6667 21.3333H5.33333V2.66665H18.6667V21.3333Z" fill="black" fill-opacity="0.5"/>
</g>
<defs>
<clipPath id="clip0_0_607">
<rect width="24" height="24" fill="white"/>
</clipPath>
</defs>
</svg>
