<svg width="24" height="24" viewBox="0 0 24 24" fill="none" xmlns="http://www.w3.org/2000/svg">
<path d="M7.49996 21.5V12.465C6.72662 12.347 6.07196 11.9927 5.53596 11.402C4.99929 10.8107 4.73096 10.087 4.73096 9.231V2.5H5.73096V9.23H7.49996V2.5H8.49996V9.23H10.27V2.5H11.27V9.23C11.27 10.0867 11.0013 10.8107 10.464 11.402C9.92662 11.9933 9.27196 12.3477 8.49996 12.465V21.5H7.49996ZM16.73 21.5V13.5H14.27V7C14.27 5.886 14.5843 4.89933 15.213 4.04C15.8416 3.18067 16.681 2.68 17.731 2.538V21.5H16.73Z" fill="black" fill-opacity="0.5"/>
</svg>
